<svg xmlns="http://www.w3.org/2000/svg" width="200" height="200" viewBox="0 0 200 200">
  <defs>
    <filter id="shadow" x="-20%" y="-20%" width="140%" height="140%">
      <feDropShadow dx="1.5" dy="1.5" stdDeviation="1" flood-color="#444" flood-opacity="0.55"/>
    </filter>
  </defs>

  <!-- rounded outer frame -->
  <rect x="2" y="2" width="196" height="196" rx="28" ry="28" fill="#FFFFFF" stroke="#9a7a56" stroke-width="2"/>

  <!-- tablet body -->
  <g filter="url(#shadow)">
    <path d="M43 22 L95 6 L148 38 L148 170 L99 194 L43 163 Z" fill="#c9c9c9" stroke="#9f9f9f" stroke-width="3" stroke-linejoin="round"/>
    <path d="M58 45 L92 35 L128 56 L128 156 L93 172 L58 154 Z" fill="#f5f5f5" stroke="#b8b8b8" stroke-width="2" stroke-linejoin="round"/>
    <circle cx="94" cy="181" r="4.2" fill="#e8e8e8" stroke="#bdbdbd" stroke-width="1"/>
  </g>

  <!-- orange D with grey outline shadow -->
  <g>
    <path d="M33 66 H85 C113 66 128 79 128 101 C128 123 113 136 85 136 H33 V113 H53 V118 H83 C99 118 108 111 108 101 C108 91 99 84 83 84 H53 V89 H33 Z" fill="#5b5b5b"/>
    <path d="M36 63 H88 C116 63 131 76 131 98 C131 122 116 139 88 139 H36 V116 H56 V121 H86 C103 121 112 113 112 100 C112 88 103 81 86 81 H56 V86 H36 Z" fill="#f5a000"/>
    <rect x="36" y="77" width="19" height="58" fill="#f5a000"/>
    <rect x="32" y="74" width="6" height="64" fill="#666666" opacity="0.95"/>
    <rect x="35" y="77" width="6" height="58" fill="#f5a000"/>
  </g>

  <!-- green i with grey outline shadow -->
  <g>
    <circle cx="148" cy="73" r="8" fill="#5b5b5b"/>
    <circle cx="150" cy="71" r="8" fill="#18a53d"/>
    <path d="M139 88 H152 V136 H135 C141 129 143 118 143 106 C143 99 142 93 139 88 Z" fill="#5b5b5b"/>
    <path d="M141 86 H154 V134 H137 C143 128 145 117 145 105 C145 98 144 91 141 86 Z" fill="#1aa63c"/>
  </g>
</svg>
