<svg t="1768897716432" class="icon" viewBox="0 0 1024 1024" version="1.1" xmlns="http://www.w3.org/2000/svg" width="200" height="200">
  <g transform="translate(1024, 0) scale(-1, 1)">
    <path d="M986.144 886.048l-52.688-52.704a310.752 310.752 0 0 0-83.552-288.256L437.36 134.176C323.312 20.096 129.088 98.832 124.368 258.4l-57.84 57.84c-46.656 46.656-46.656 122.56 0 169.232l242.608 242.592 56.416-56.4L122.944 429.056a39.936 39.936 0 0 1 0-56.4l84.064-84.064c-24.96-102.528 100.624-171.36 173.984-97.968l176.736 176.048-146.688 146.688-169.6-168.928-25.632 25.632-1.264 1.264-29.52 29.52L590.432 804.64c77.52 77.536 185.376 105.712 285.568 84.064 56.368 56.352 60.72 65.424 81.952 65.424 35.216 0 53.408-42.896 28.192-68.096z m-129.536-74.752c-15.2 3.104-30.672 4.672-46.208 4.672 15.952 0-85.248 10.576-163.6-67.776L467.552 569.648l146.688-146.672 179.296 178.592a230.976 230.976 0 0 1 63.072 209.728z" fill="#3D424D"></path>
  </g>
</svg>