<?xml version="1.0" encoding="UTF-8"?>
<svg xmlns="http://www.w3.org/2000/svg" width="32" height="32" viewBox="0 0 32 32">
  <title>icon_05.svg</title>
  <path d="M 8.50 8.50 L 8.50 14.25 L 9.25 14.00 L 9.25 13.25 L 10.75 11.00 L 11.75 10.50 L 14.00 10.75 L 14.00 23.00 L 13.25 23.75 L 11.75 23.75 L 11.50 25.00 L 20.25 25.00 L 20.00 23.75 L 18.00 23.75 L 17.50 23.00 L 17.50 11.00 L 18.00 10.25 L 20.75 11.00 L 21.75 12.25 L 22.50 14.25 L 23.25 14.25 L 23.25 8.50 Z
    M 15.75 4.75 L 19.75 5.50 L 22.75 7.25 L 25.25 10.00 L 26.50 12.75 L 27.00 15.75 L 26.25 19.75 L 24.50 22.75 L 21.75 25.25 L 19.00 26.50 L 16.00 27.00 L 12.00 26.25 L 9.00 24.50 L 6.50 21.75 L 5.25 19.00 L 4.75 16.00 L 5.50 12.00 L 7.25 9.00 L 10.00 6.50 L 12.75 5.25 Z
    M 13.50 3.00 L 9.00 4.75 L 7.00 6.25 L 5.25 8.25 L 3.75 11.00 L 3.00 13.50 L 3.00 18.25 L 4.75 22.75 L 6.00 24.50 L 8.25 26.50 L 11.00 28.00 L 13.50 28.75 L 18.25 28.75 L 22.75 27.00 L 24.50 25.75 L 26.50 23.50 L 28.00 20.75 L 28.75 18.25 L 28.75 13.50 L 27.00 9.00 L 25.75 7.25 L 23.50 5.25 L 20.75 3.75 L 18.25 3.00 Z"
        fill="#202020"
        fill-rule="evenodd"/>
</svg>
