<?xml version="1.0" standalone="no"?>
<!DOCTYPE svg PUBLIC "-//W3C//DTD SVG 1.1//EN" "http://www.w3.org/Graphics/SVG/1.1/DTD/svg11.dtd">
<svg viewBox="0 0 1024 1024" version="1.1" xmlns="http://www.w3.org/2000/svg" width="200" height="200">
  <path d="M853.333333 138.666667H170.666667c-17.066667 0-32 14.933333-32 32v128c0 17.066667 14.933333 32 32 32s32-14.933333 32-32V202.666667h277.333333v618.666666H384c-17.066667 0-32 14.933333-32 32s14.933333 32 32 32h256c17.066667 0 32-14.933333 32-32s-14.933333-32-32-32h-96v-618.666666h277.333333V298.666667c0 17.066667 14.933333 32 32 32s32-14.933333 32-32V170.666667c0-17.066667-14.933333-32-32-32z" 
        fill="#3D424D" 
		stroke="#3D424D"
		stroke-width="20"
		stroke-linejoin="round"
        transform="matrix(0.6, 0, 0, 0.6, 204.8, 222.4)"></path>
  
  <path d="M512 960c-247.039484 0-448-200.960516-448-448S264.960516 64 512 64 960 264.960516 960 512 759.039484 960 512 960zM512 128c-211.744443 0-384 172.255557-384 384s172.255557 384 384 384 384-172.255557 384-384S723.744443 128 512 128z" 
        fill="#3D424D"></path>
</svg>