<?xml version="1.0" encoding="UTF-8"?>
<svg xmlns="http://www.w3.org/2000/svg" width="32" height="32" viewBox="0 0 32 32">
  <title>icon_06.svg</title>
  <path d="M 17.62 12.75 L 17.62 21.69 L 18.44 21.69 L 18.44 12.75 Z
    M 12.75 12.75 L 12.75 21.69 L 13.56 21.69 L 13.56 12.75 Z
    M 7.88 7.06 L 23.31 7.06 L 24.12 7.88 L 23.31 20.06 L 21.69 26.56 L 20.06 27.38 L 11.12 27.38 L 8.69 25.75 L 7.88 13.56 L 7.06 12.75 L 7.06 7.88 Z
    M 13.56 5.44 L 14.38 4.62 L 17.62 5.44 L 16.81 6.25 Z
    M 3.81 6.25 L 5.44 7.88 L 7.06 26.56 L 8.69 28.19 L 22.50 28.19 L 24.12 26.56 L 25.75 8.69 L 27.38 7.88 L 27.38 6.25 L 20.06 6.25 L 19.25 3.81 L 17.62 3.00 L 13.56 3.00 L 11.12 6.25 Z"
        fill="#202020"
        fill-rule="evenodd"/>
</svg>
