<?xml version="1.0" standalone="no"?>
<!DOCTYPE svg PUBLIC "-//W3C//DTD SVG 1.1//EN" "http://www.w3.org/Graphics/SVG/1.1/DTD/svg11.dtd">
<svg t="1768900553884" class="icon" viewBox="0 0 1049 1024" version="1.1" xmlns="http://www.w3.org/2000/svg" p-id="9574" width="204.88" height="200">
  <g transform="translate(52.45, 51.2) scale(0.9)">
    <path d="M481.4336 809.4208c34.816-35.4816 70.656-72.96 107.4944-112.4352l56.1408 52.4032a6109.3376 6109.3376 0 0 1-145.2288 150.5792 38.4 38.4 0 0 1-29.2608 11.2128c-94.8992-5.1968-157.952 20.0448-230.8608 92.928a38.4 38.4 0 0 1-43.264 7.68c-11.0336-5.0944-58.5216-27.6736-70.7072-33.3568a1804.1856 1804.1856 0 0 0-87.9616-38.5536 38.4 38.4 0 0 1-14.9504-60.3648c84.8384-100.5312 106.496-160.768 101.1456-315.6736a38.4 38.4 0 0 1 11.2384-28.4928C285.6192 384.9472 474.4192 214.8864 701.696 25.088a89.6 89.6 0 0 1 120.7808 5.4272l181.6832 181.6832a89.6 89.6 0 0 1 4.6336 121.6768c-112.9472 131.6608-188.3392 219.0592-226.304 262.3488l-57.7536-50.6368c37.7344-43.008 113.024-130.304 225.792-261.7088a12.8 12.8 0 0 0-0.6656-17.408l-181.6832-181.6576a12.8 12.8 0 0 0-17.2544-0.768c-25.1392 20.992-49.792 41.728-73.984 62.208l155.9808 155.9808-54.2976 54.3232-160.2816-160.2816c-150.7072 129.408-281.5744 248.576-392.6016 357.504l255.6672 255.6416z m-81.5872 27.0336l-198.9888-198.9632c-4.1472 106.0352-28.8768 173.3632-87.04 251.136 14.336 6.3232 28.928 12.9792 44.416 20.1984 7.8592 3.6864 29.312 13.8496 46.848 22.1696 61.2864-55.936 122.0096-85.8112 194.7648-94.5408z" 
          fill="#3D424D">
    </path>
  </g>
</svg>