<?xml version="1.0" encoding="UTF-8"?>
<svg xmlns="http://www.w3.org/2000/svg" width="32" height="32" viewBox="0 0 32 32">
  <title>icon_11.svg</title>
  <path d="M 13.96 4.78 L 15.49 5.80 L 15.49 12.43 L 16.25 13.20 L 24.16 13.96 L 24.67 14.73 L 24.67 25.43 L 23.90 26.71 L 23.14 26.96 L 12.43 26.71 L 7.08 17.78 L 7.84 16.25 L 8.35 16.00 L 9.37 16.25 L 12.69 20.84 L 12.69 5.80 Z
    M 12.69 3.25 L 10.90 5.04 L 10.90 14.73 L 10.65 14.98 L 9.37 14.22 L 6.82 14.73 L 5.29 16.76 L 5.55 19.06 L 9.88 26.45 L 11.67 28.49 L 12.43 28.75 L 24.41 28.49 L 26.20 26.71 L 26.45 23.90 L 26.20 13.71 L 24.92 12.18 L 17.53 11.67 L 17.02 4.78 L 15.24 3.25 L 14.47 3.00 Z"
        fill="#202020"
        fill-rule="evenodd"/>
</svg>
